<svg width="126" height="152" viewBox="0 0 126 152" fill="none" xmlns="http://www.w3.org/2000/svg">
<path fill-rule="evenodd" clip-rule="evenodd" d="M85.5468 0.417079C82.0037 1.39031 79.254 3.01877 76.5698 5.73413C72.6911 9.6573 71.0491 13.5735 71.005 19.0065C70.9071 31.1321 82.7984 40.1736 94.805 37.1031C98.2892 36.2117 100.766 34.7797 103.531 32.0574C105.445 30.1733 106.187 29.155 107.202 27.0197C108.72 23.8282 109.161 21.8881 109.161 18.4117C109.161 10.5304 104.17 3.65353 96.5062 0.976587C93.5754 -0.0473406 88.2307 -0.32001 85.5468 0.417079ZM42.596 45.9951C41.897 46.3946 41.103 47.2051 40.7595 47.8704C39.637 50.0442 40.193 53.2158 41.863 54.1651C42.2509 54.3855 48.59 57.1222 55.9499 60.2466L69.3315 65.9273L73.1885 71.5548L77.0456 77.1823V112.255C77.0456 142.265 77.1114 147.455 77.5018 148.21C78.174 149.51 80.0298 151.015 81.2392 151.242C82.6507 151.507 84.8277 150.889 85.6605 149.988C86.0311 149.587 89.7345 144.857 93.8906 139.476C98.0468 134.095 101.529 129.686 101.629 129.678C101.729 129.671 105.243 134.398 109.437 140.184C116.195 149.507 117.205 150.761 118.314 151.204C120.97 152.267 123.361 151.514 124.73 149.185C125.371 148.093 125.377 147.771 125.463 110.232L125.549 72.3798L120.69 60.3423C117.985 53.6421 115.452 47.8298 114.976 47.2331C113.331 45.172 115.41 45.281 77.9215 45.2866L43.8278 45.292L42.596 45.9951ZM2.71389 78.7431C1.53442 79.5378 0.306151 81.1936 0.00451409 82.3952C-0.103798 82.8268 1.75042 97.5 4.1251 115.002C7.51898 140.017 8.57975 147.111 9.08415 148.167C9.51173 149.061 10.1717 149.771 11.0615 150.292L12.3971 151.075L34.8819 151.074C60.1479 151.074 58.7024 151.207 60.4244 148.713C61.2698 147.489 61.4165 146.551 65.7062 114.996C68.1331 97.1448 70.1186 82.1722 70.1186 81.7242C70.1186 81.2758 69.7358 80.454 69.2676 79.8977C66.9962 77.1984 62.216 77.437 60.9061 80.3149C60.6442 80.8901 58.7018 94.0686 56.4405 110.615C54.2396 126.72 52.369 140.145 52.284 140.448C52.1388 140.964 51.0519 140.999 35.154 140.999H18.1786L18.0196 140.291C17.9317 139.901 16.0822 126.637 13.9091 110.814C11.7277 94.9313 9.76457 81.6744 9.52653 81.217C8.65909 79.5501 6.3499 78.0271 4.68996 78.0271C4.18744 78.0271 3.29796 78.3492 2.71389 78.7431ZM33.1225 79.9629C32.1408 80.4962 17.5504 95.0828 17.0438 96.0371C16.7954 96.505 16.5923 97.4682 16.5923 98.1782C16.5923 98.8882 16.7954 99.8513 17.0438 100.319C17.5863 101.341 32.2 115.911 33.1804 116.407C33.5589 116.598 34.4537 116.755 35.1691 116.755C35.8845 116.755 36.7793 116.598 37.1578 116.407C38.1382 115.911 52.7519 101.341 53.2944 100.319C53.8315 99.3079 53.8854 97.1527 53.3976 96.1895C52.9014 95.209 38.3322 80.5954 37.3102 80.0529C36.3124 79.523 34.0221 79.4739 33.1225 79.9629Z" fill="white"/>
</svg>
