<svg width="145" height="145" viewBox="0 0 145 145" fill="none" xmlns="http://www.w3.org/2000/svg">
<path fill-rule="evenodd" clip-rule="evenodd" d="M67.7492 0.0864544C57.9733 1.5465 50.9859 4.96342 44.4931 11.4588C40.8797 15.0738 38.9668 17.6856 36.9181 21.8023C33.2751 29.1214 31.9622 37.902 33.4856 44.7558C35.9968 56.0523 44.5063 73.9254 58.9605 98.264C63.5427 105.98 64.9779 107.785 67.4401 108.935C71.6554 110.902 76.3706 110.101 79.5917 106.87C82.2804 104.173 96.253 79.725 102.044 67.585C106.383 58.4872 109.546 50.2009 110.722 44.8463C112.632 36.1533 110.164 25.1769 104.421 16.834C102.456 13.979 98.4502 9.83926 95.5259 7.64228C91.3343 4.49308 85.0607 1.70093 79.7083 0.601881C77.6748 0.184524 69.4629 -0.169427 67.7492 0.0864544ZM68.8765 21.0947C68.1015 21.2404 66.4278 21.8606 65.1572 22.4733C60.9856 24.4842 58.0892 28.0931 56.8926 32.7708C56.2318 35.3553 56.1988 37.1194 56.7618 39.7889C57.4156 42.8894 58.6635 45.1241 61.1025 47.562C64.4197 50.8781 67.5359 52.1572 72.2582 52.142C76.8604 52.127 80.4044 50.5636 83.6142 47.1323C85.5956 45.0142 86.8905 42.5495 87.4727 39.7889C88.0357 37.1194 88.0028 35.3553 87.3419 32.7708C86.1445 28.0891 83.2453 24.4786 79.0773 22.4781C75.6988 20.8565 72.4721 20.4189 68.8765 21.0947ZM45.2046 96.3235C32.2045 99.0061 24.483 104.117 24.4545 110.059C24.4407 112.921 25.3597 114.933 27.6367 117.029C34.8239 123.643 55.6808 127.635 78.2466 126.716C99.2545 125.86 114.264 121.446 118.461 114.891C120.01 112.471 120.241 109.291 119.044 106.845C116.815 102.289 108.842 98.173 98.3896 96.1815L96.435 95.8089L94.2826 99.5023C93.0987 101.534 92.1242 103.319 92.1174 103.47C92.1104 103.621 93.1556 103.919 94.4401 104.132C100.338 105.108 106.797 107.184 109.626 109.013L111.357 110.132L110.689 110.849C108.471 113.229 99.4467 115.979 89.5893 117.278C79.3138 118.633 64.9207 118.633 54.6452 117.278C44.7509 115.974 35.7911 113.233 33.5197 110.815L32.9017 110.157L34.1882 109.272C36.8366 107.45 43.1624 105.319 48.8681 104.325C52.6928 103.66 52.4848 103.748 52.0114 102.989C51.7919 102.638 50.7579 100.892 49.7138 99.1095C48.6697 97.327 47.7987 95.8532 47.7781 95.8346C47.7578 95.8157 46.5996 96.0358 45.2046 96.3235ZM11.949 101.264C7.583 103.578 2.99207 107.822 1.45819 110.963C-0.75738 115.499 -0.442883 120.151 2.36533 124.38C7.92483 132.753 23.9814 139.426 45.9091 142.477C55.2612 143.777 59.5855 144.035 72.1173 144.035C84.9753 144.035 89.2385 143.768 99.1708 142.345C123.82 138.812 140.773 130.602 143.585 120.837C143.835 119.969 144.152 119.039 144.291 118.77C144.615 118.138 144.62 114.527 144.296 114.728C144.161 114.811 143.979 114.438 143.891 113.899C143.804 113.36 143.317 112.062 142.809 111.016C140.951 107.185 133.499 100.947 130.358 100.593C126.823 100.195 124.389 104.308 126.448 107.2C126.767 107.648 128.083 108.663 129.374 109.455C133.615 112.06 136.071 115.119 135.71 117.347C135.141 120.851 130.185 124.722 122.279 127.839C95.6998 138.319 48.5232 138.324 21.978 127.849C14.0449 124.719 9.09406 120.854 8.5248 117.347C8.16522 115.131 10.6271 112.066 14.8607 109.459C16.1511 108.664 17.4637 107.654 17.778 107.212C19.1811 105.242 18.5645 102.441 16.4552 101.205C14.9458 100.321 13.6985 100.337 11.949 101.264ZM0.0691618 116.863C0.0691618 118.026 0.119042 118.502 0.17963 117.92C0.240501 117.339 0.240501 116.388 0.17963 115.807C0.119042 115.225 0.0691618 115.701 0.0691618 116.863Z" fill="white"/>
</svg>
