<svg width="126" height="144" viewBox="0 0 126 144" fill="none" xmlns="http://www.w3.org/2000/svg">
<path fill-rule="evenodd" clip-rule="evenodd" d="M39.121 0.38558C30.8489 2.47792 25.5112 11.1661 27.5766 19.1767C28.4482 22.5567 30.9158 26.2047 34.0251 28.7095C35.9718 30.278 40.4123 32.5273 43.4151 33.4663L45.5007 34.1183L24.1561 34.2589C3.85067 34.3927 2.77357 34.4253 2.03105 34.9286C1.60173 35.2196 0.969134 35.8522 0.625284 36.3344C0.00984011 37.1972 0 37.3544 0 46.3485C0 55.3425 0.00984011 55.4997 0.625284 56.3626C0.969134 56.8447 1.60173 57.4773 2.03105 57.7683C2.7806 58.2764 3.93895 58.3005 31.2783 58.3731L59.745 58.4484V46.3538V34.2589H62.5565H65.368V46.3485V58.438H93.4923C124.597 58.438 122.813 58.5449 124.303 56.592L125.113 55.5298V46.3704C125.113 37.3535 125.103 37.1972 124.488 36.3344C124.144 35.8522 123.511 35.2196 123.082 34.9286C122.338 34.4239 121.309 34.3952 100.934 34.31L79.5663 34.2206L81.9561 33.4053C85.2517 32.2807 89.1429 30.2766 91.1146 28.6881C93.0799 27.1047 95.0769 24.6949 96.2442 22.498C102.578 10.5765 90.554 -3.52385 77.7388 0.797187C71.3712 2.94435 67.0443 8.05037 63.7975 17.2491C63.1424 19.1047 62.5371 20.4332 62.4519 20.2012C59.8653 13.1494 58.7311 10.6997 56.7771 7.94466C54.461 4.67935 50.9452 2.0053 47.3743 0.79297C45.03 -0.00269241 41.3705 -0.183193 39.121 0.38558ZM45.3109 6.09383C50.1121 7.59265 53.4851 11.7669 56.1912 19.5582C57.0482 22.0262 58.4073 27.1257 59.0469 30.2738L59.2367 31.2087L57.8742 31.0163C54.4427 30.5316 49.2006 29.38 46.2496 28.4626C39.6386 26.4071 35.7894 23.7036 33.8432 19.7489C32.9854 18.0054 32.8963 17.593 32.9087 15.4267C32.921 13.3158 33.0259 12.8314 33.7934 11.3404C36.1338 6.7939 40.7776 4.6785 45.3109 6.09383ZM85.0409 6.02663C87.8085 6.84872 90.0226 8.74201 91.4236 11.4855C92.1051 12.8204 92.2136 13.3594 92.2156 15.4259C92.2178 17.5668 92.1203 18.0186 91.2934 19.7002C90.7424 20.8206 89.6965 22.2629 88.7057 23.2692C85.6504 26.3723 79.4397 28.8014 70.3346 30.4546C68.0404 30.8713 66.1044 31.1527 66.0318 31.0802C65.7836 30.8322 67.3884 24.2824 68.6066 20.5707C71.3698 12.1518 74.6295 7.87802 79.5885 6.17255C81.61 5.47754 83.0604 5.43846 85.0409 6.02663ZM5.54968 102.559C5.62278 140.945 5.62474 141.058 6.20279 141.832C6.52162 142.259 7.13172 142.869 7.55879 143.188C8.32775 143.763 8.57516 143.768 34.04 143.842L59.745 143.917V103.989V64.0611H32.6106H5.47658L5.54968 102.559ZM65.368 103.989V143.917L91.073 143.842C116.538 143.768 116.785 143.763 117.554 143.188C117.981 142.869 118.591 142.259 118.91 141.832C119.488 141.058 119.49 140.945 119.563 102.559L119.636 64.0611H92.5024H65.368V103.989Z" fill="white"/>
</svg>
