<svg width="39" height="39" viewBox="0 0 39 39" fill="none" xmlns="http://www.w3.org/2000/svg">
<circle cx="19.5" cy="19.5" r="19.5" fill="#004828"/>
<path d="M12.79 13.4977C13.3716 13.3313 13.9876 13.6922 14.1123 14.3015L15.1484 19.362L15.1689 19.5222C15.21 20.2561 14.4846 20.8104 13.7871 20.5778L13.6387 20.5163L13.0234 20.2058C12.842 20.1142 12.6254 20.1625 12.499 20.3122L12.4502 20.3825L9.59961 25.5641C9.5278 25.6949 9.52842 25.854 9.60156 25.9841L9.74414 26.236L9.77539 26.2839C9.85626 26.3911 9.98363 26.4558 10.1201 26.4558H13.4775C14.0606 26.4558 14.5332 26.9284 14.5332 27.5114V29.4499C14.533 30.0066 14.1025 30.46 13.5596 30.5016L13.4492 30.5046L8.33398 30.3698C8.1819 30.3658 8.03304 30.3288 7.89746 30.2624L7.7666 30.1862L5.62598 28.7253C5.42186 28.5859 5.27459 28.3797 5.20703 28.1442L5.18262 28.0417L4.74023 25.6061C4.69722 25.3695 4.73583 25.1252 4.85059 24.9138L8.50586 18.1852L8.53906 18.1061C8.5893 17.9438 8.53912 17.7658 8.41113 17.654L8.3418 17.6042L7.90625 17.3552C7.14553 16.9193 7.21656 15.7993 8.02637 15.4636L12.6738 13.5378L12.79 13.4977Z" fill="#F5F5F5" stroke="#F5F5F5" stroke-width="0.624007"/>
<path d="M28.6009 17.6041C28.4543 18.1909 27.8337 18.5439 27.2437 18.3473L22.3431 16.7144L22.1941 16.6521C21.538 16.3206 21.4207 15.4152 21.9708 14.9275L22.0983 14.8297L22.6749 14.4522C22.8449 14.3409 22.9114 14.1291 22.8449 13.9448L22.8084 13.8674L19.7463 8.80787C19.6689 8.68029 19.5308 8.60127 19.3816 8.5996L19.0922 8.5971L19.0351 8.60024C18.9018 8.61667 18.7821 8.69464 18.7139 8.81284L17.0352 11.7205C16.7437 12.2254 16.098 12.3984 15.5931 12.1069L13.9143 11.1376C13.4323 10.8591 13.2549 10.2596 13.4903 9.76855L13.5429 9.67151L16.2173 5.30897C16.2968 5.17927 16.4033 5.06885 16.5286 4.98464L16.66 4.9094L18.9955 3.78603C19.2182 3.67894 19.4705 3.65452 19.7082 3.71374L19.8092 3.74387L22.1396 4.57853C22.3661 4.65962 22.5583 4.8152 22.6841 5.02029L26.6835 11.5501L26.7354 11.6184C26.8509 11.7431 27.0301 11.7886 27.1909 11.7337L27.2687 11.6986L27.7022 11.4459C28.46 11.005 29.3944 11.6265 29.2803 12.4957L28.6243 17.4834L28.6009 17.6041Z" fill="#F5F5F5" stroke="#F5F5F5" stroke-width="0.624007"/>
<path d="M17.1393 29.2435C16.7043 28.8231 16.7089 28.1092 17.1742 27.6965L21.0387 24.2689L21.1671 24.1711C21.7822 23.7686 22.6249 24.1197 22.7723 24.84L22.7932 24.9993L22.8319 25.6874C22.8433 25.8903 22.9934 26.0537 23.1863 26.0883L23.2716 26.0954L29.1843 25.9733C29.3335 25.9701 29.471 25.89 29.547 25.7616L29.6939 25.5122L29.7197 25.4612C29.7721 25.3376 29.7644 25.1949 29.6962 25.0767L28.0175 22.1691C27.726 21.6642 27.899 21.0186 28.4039 20.727L30.0827 19.7578C30.5649 19.4796 31.1728 19.6257 31.4803 20.0751L31.538 20.1692L33.9789 24.6665C34.0515 24.8003 34.0939 24.9477 34.1042 25.0983L34.1036 25.2497L33.9087 27.834C33.8901 28.0804 33.7852 28.3111 33.615 28.4873L33.5384 28.5598L31.6504 30.1606C31.4669 30.3162 31.236 30.4049 30.9956 30.4113L23.3409 30.61L23.2558 30.6208C23.09 30.6584 22.961 30.7909 22.9281 30.9576L22.9197 31.0426L22.9218 31.5443C22.9247 32.421 21.9193 32.9195 21.2236 32.3861L17.2321 29.3241L17.1393 29.2435Z" fill="#F5F5F5" stroke="#F5F5F5" stroke-width="0.624007"/>
</svg>
