<svg width="135" height="148" viewBox="0 0 135 148" fill="none" xmlns="http://www.w3.org/2000/svg">
<path fill-rule="evenodd" clip-rule="evenodd" d="M55.9475 0.23452C41.7045 2.24774 30.5279 12.6243 27.2996 26.8314C26.9567 28.3409 26.799 30.5503 26.8043 33.7691C26.8106 37.8021 26.9284 38.9322 27.6088 41.5065C29.2983 47.8984 32.0455 52.7668 36.4989 57.2621C40.9164 61.7205 45.9416 64.5728 52.3761 66.2737C56.5423 67.3751 63.4655 67.4437 67.5779 66.4249C74.1219 64.8036 78.8785 62.2054 83.5278 57.7136C88.3432 53.0609 91.1575 48.2127 92.9352 41.5065C93.6269 38.8978 93.7343 37.8349 93.7343 33.6116C93.7343 28.1885 93.1301 25.0899 91.1405 20.3107C88.1011 13.0094 80.8716 5.78079 73.5678 2.7405C68.2255 0.516321 61.1112 -0.495327 55.9475 0.23452ZM41.6941 80.8596C21.5597 83.2044 5.43725 97.6927 0.897278 117.522C0.158615 120.748 0.0279487 122.037 0.00370445 126.338C-0.0211696 130.719 0.0660465 131.663 0.673413 133.58C2.65168 139.824 7.72472 144.882 14.1438 147.012L16.3478 147.744L43.2536 147.837C63.2583 147.906 70.387 147.835 71.0482 147.561C72.1578 147.102 73.0649 145.856 73.3269 144.432C73.495 143.517 73.2472 142.777 71.7901 139.848C68.4292 133.092 67.1729 127.914 67.1733 120.824C67.1733 112.698 69.24 105.663 73.5763 99.0274C75.803 95.6197 78.6112 92.4257 81.2636 90.2837C85.291 87.0315 85.7746 86.4468 85.7746 84.831C85.7746 82.6304 84.9405 81.8722 81.8388 81.2548C79.7507 80.8392 76.3045 80.7387 61.6878 80.6691C51.99 80.6225 42.9929 80.7085 41.6941 80.8596ZM104.509 94.6417C103.816 94.9736 102.867 95.6524 102.4 96.1505C100.709 97.954 100.573 98.7466 100.573 106.807V114.216L93.0951 114.223C84.6896 114.231 83.9676 114.38 82.1055 116.501C80.7847 118.005 80.3029 119.584 80.5208 121.695C80.7475 123.893 81.8373 125.561 83.7998 126.714L85.3023 127.598L92.9179 127.696L100.533 127.795L100.632 135.568C100.728 143.147 100.749 143.371 101.488 144.559C103.016 147.017 106.322 148.332 109.096 147.585C110.901 147.099 113.275 144.779 113.76 143.026C113.966 142.28 114.109 138.91 114.11 134.761L114.112 127.755L121.118 127.753C125.267 127.752 128.637 127.609 129.383 127.403C131.136 126.917 133.456 124.544 133.942 122.739C134.684 119.985 133.574 117.026 131.164 115.331L129.803 114.373L121.977 114.275L114.152 114.176L114.054 106.561C113.957 99.1105 113.938 98.9147 113.167 97.5422C111.991 95.4446 110.227 94.3439 107.774 94.176C106.236 94.0709 105.474 94.1795 104.509 94.6417Z" fill="white"/>
</svg>
